#!OML:ASF Y:\EmotionMaleHayes\Project 1\Capture day 1\Session 1\Male1.ASF
:FULLY-SPECIFIED
:DEGREES
443
root 44.5668 17.0493 -0.373036 817.73 79.2981 824.209
lowerback 9.4207 0.629079 -10.18
upperback 3.95434 0.113742 -2.26092
thorax -1.12633 0.0686552 3.33791
lowerneck -20.7952 2.04212 2.25565
upperneck 24.0505 3.15202 -2.86941
head 11.3545 1.34281 -0.918969
rclavicle -4.94477e-015 -8.15017e-015
rhumerus -46.7878 -9.32918 -70.1751
rradius 28.1836
rwrist -3.52671
rhand -18.6862 -38.0529
rfingers 7.12502
rthumb 7.60807 -67.8961
lclavicle -4.94477e-015 -8.15017e-015
lhumerus -31.9589 -28.2218 85.9929
lradius 77.5199
lwrist 4.14971
lhand -31.0043 -31.5395
lfingers 7.12502
lthumb -4.28732 -1.6029
rfemur -4.14837 2.64547 2.84836
rtibia 22.345
rfoot -14.7168 -5.21635
rtoes 3.14648
lfemur 10.0943 0.626688 -29.9185
ltibia 4.5143
lfoot -8.58827 6.53126
ltoes 6.00208
444
root 44.6266 17.0702 -0.367342 819.114 79.8764 825.412
lowerback 9.38344 0.6596 -9.51297
upperback 3.7242 0.181906 -1.95322
thorax -1.36533 0.112816 3.28252
lowerneck -20.9499 1.80617 1.89406
upperneck 24.3054 2.86212 -2.55511
head 11.4609 1.2184 -0.788076
rclavicle 1.39398e-014 5.68524e-014
rhumerus -46.5382 -8.34823 -71.1766
rradius 28.7645
rwrist -3.93592
rhand -18.6865 -37.5475
rfingers 7.12502
rthumb 7.60772 -67.3906
lclavicle 1.39398e-014 5.68524e-014
lhumerus -33.2802 -27.4721 87.5271
lradius 75.5383
lwrist 4.03854
lhand -29.2479 -28.447
lfingers 7.12502
lthumb -2.59114 1.51704
rfemur -3.78243 2.64815 3.58707
rtibia 21.7775
rfoot -14.646 -5.29754
rtoes 2.16187
lfemur 10.2614 0.297124 -29.2776
ltibia 4.28316
lfoot -8.55708 6.69172
ltoes 3.59028
445
root 44.6922 17.0907 -0.358929 821.311 80.0783 827.49
lowerback 9.20752 0.541986 -9.33289
upperback 3.61399 0.0466154 -1.75219
thorax -1.36952 0.0434562 3.40698
lowerneck -21.185 1.76747 1.85165
upperneck 24.574 2.76576 -2.33441
head 11.6019 1.19771 -0.713633
rclavicle -1.33186e-014 -1.86858e-014
rhumerus -46.1788 -7.10364 -72.4355
rradius 29.6221
rwrist -4.23793
rhand -18.4001 -36.7311
rfingers 7.12502
rthumb 7.88419 -66.5641
lclavicle -1.33186e-014 -1.86858e-014
lhumerus -34.375 -26.5827 88.7203
lradius 73.5335
lwrist 4.56204
lhand -27.3365 -25.2975
lfingers 7.12502
lthumb -0.745096 4.68092
rfemur -3.10551 2.38538 3.88344
rtibia 20.9763
rfoot -14.4813 -5.28247
rtoes 2.28339
lfemur 10.4944 0.0917112 -28.9478
ltibia 4.04074
lfoot -8.37522 6.51721
ltoes 1.61436
446
root 44.763 17.1078 -0.346031 824.52 80.2261 830.481
lowerback 8.81937 0.372497 -9.20193
upperback 3.52001 -0.136724 -1.55521
thorax -1.23212 -0.0565673 3.55817
lowerneck -21.3245 1.78369 1.92516
upperneck 24.6822 2.71826 -2.17919
head 11.6677 1.20214 -0.675326
rclavicle -5.31749e-015 -2.74323e-014
rhumerus -45.7911 -5.73622 -73.7614
rradius 30.4391
rwrist -4.38787
rhand -17.8468 -35.6638
rfingers 7.12502
rthumb 8.4182 -65.4761
lclavicle -5.31749e-015 -2.74323e-014
lhumerus -35.2798 -25.8332 89.8086
lradius 71.3566
lwrist 5.54304
lhand -25.6553 -22.5757
lfingers 7.12502
lthumb 0.878646 7.40226
rfemur -2.35226 2.03995 4.197
rtibia 20.0316
rfoot -14.3447 -5.32694
rtoes 2.36203
lfemur 10.6275 -0.0639291 -28.535
ltibia 3.78977
lfoot -8.24696 6.14283
ltoes 1.4777
447
root 44.8252 17.1215 -0.336094 826.411 80.4438 831.99
lowerback 8.34239 0.277173 -9.03607
upperback 3.35508 -0.218578 -1.38287
thorax -1.13302 -0.103166 3.65245
lowerneck -21.5766 1.767 2.22371
upperneck 24.9767 2.65896 -2.3861
head 11.8369 1.17557 -0.810718
rclavicle -6.28657e-015 -1.11319e-014
rhumerus -45.4051 -4.37868 -75.0397
rradius 31.082
rwrist -3.9004
rhand -17.5518 -33.8109
rfingers 7.12502
rthumb 8.70289 -63.6115
lclavicle -6.28657e-015 -1.11319e-014
lhumerus -36.1711 -25.008 90.7738
lradius 69.1769
lwrist 6.79271
lhand -24.0731 -20.7353
lfingers 7.12502
lthumb 2.4068 9.23084
rfemur -2.0705 1.78564 4.51414
rtibia 19.4021
rfoot -14.3614 -5.19034
rtoes 4.00825
lfemur 10.55 -0.235915 -28.1758
ltibia 3.55659
lfoot -8.20686 6.03421
ltoes 1.03374
